<?xml version="1.0" encoding="utf-8"?>
<!-- Generator: Adobe Illustrator 23.0.3, SVG Export Plug-In . SVG Version: 6.00 Build 0)  -->
<svg version="1.1" xmlns="http://www.w3.org/2000/svg" xmlns:xlink="http://www.w3.org/1999/xlink" x="0px" y="0px"
	 viewBox="0 0 1024 768" style="enable-background:new 0 0 1024 768;" xml:space="preserve">
<style type="text/css">
	.st0{fill:#0071BC;}
	.st1{fill:#B3B3B3;}
	.st2{fill:#F2F2F2;stroke:#000000;stroke-width:3;stroke-miterlimit:10;}
	.st3{fill:#FF1D25;}
	.st4{font-family:'MyriadPro-Regular';}
	.st5{font-size:59.7973px;}
	.st6{font-family:'SegoeUI-Semilight';}
	.st7{font-size:28.2894px;}
	.st8{font-size:30.3587px;}
	.st9{font-size:30.3588px;}
	.st10{fill:#FF0000;}
	.st11{fill:#999999;}
	.st12{fill:#FF931E;stroke:#666666;stroke-width:5;stroke-miterlimit:10;}
	.st13{fill:#7AC943;stroke:#666666;stroke-width:5;stroke-miterlimit:10;}
</style>
<g id="Capa_1">
	<g>
		<path class="st0" d="M341.63,610.89c-15.51,0-28.13-12.62-28.13-28.13v-386.4c0-15.51,12.62-28.13,28.13-28.13h334.74
			c15.51,0,28.13,12.62,28.13,28.13v386.4c0,15.51-12.62,28.13-28.13,28.13H341.63z"/>
		<path d="M676.37,169.22c14.96,0,27.13,12.17,27.13,27.13v386.4c0,14.96-12.17,27.13-27.13,27.13H341.63
			c-14.96,0-27.13-12.17-27.13-27.13v-386.4c0-14.96,12.17-27.13,27.13-27.13H676.37 M676.37,167.22H341.63
			c-16.09,0-29.13,13.04-29.13,29.13v386.4c0,16.09,13.04,29.13,29.13,29.13h334.74c16.09,0,29.13-13.04,29.13-29.13v-386.4
			C705.5,180.26,692.46,167.22,676.37,167.22L676.37,167.22z"/>
	</g>
	<g>
		<path d="M361.69,180c-8.37,0-15.19-6.81-15.19-15.19v-5.63c0-8.37,6.81-15.19,15.19-15.19h294.63c8.37,0,15.19,6.81,15.19,15.19
			v5.63c0,8.37-6.81,15.19-15.19,15.19H361.69z"/>
		<path class="st1" d="M656.31,149c5.62,0,10.19,4.57,10.19,10.19v5.63c0,5.62-4.57,10.19-10.19,10.19H361.69
			c-5.62,0-10.19-4.57-10.19-10.19v-5.63c0-5.62,4.57-10.19,10.19-10.19H656.31 M656.31,139H361.69c-11.15,0-20.19,9.04-20.19,20.19
			v5.63c0,11.15,9.04,20.19,20.19,20.19h294.63c11.15,0,20.19-9.04,20.19-20.19v-5.63C676.5,148.04,667.46,139,656.31,139
			L656.31,139z"/>
	</g>
	<g>
		<path d="M750.5,472c-12.41,0-22.5-10.09-22.5-22.5v-119c0-12.41,10.09-22.5,22.5-22.5s22.5,10.09,22.5,22.5v119
			C773,461.91,762.91,472,750.5,472z"/>
		<path class="st1" d="M750.5,313c9.65,0,17.5,7.85,17.5,17.5v119c0,9.65-7.85,17.5-17.5,17.5s-17.5-7.85-17.5-17.5v-119
			C733,320.85,740.85,313,750.5,313 M750.5,303c-15.19,0-27.5,12.31-27.5,27.5v119c0,15.19,12.31,27.5,27.5,27.5
			s27.5-12.31,27.5-27.5v-119C778,315.31,765.69,303,750.5,303L750.5,303z"/>
	</g>
	<g>
		<path d="M266.5,472c-12.41,0-22.5-10.09-22.5-22.5v-119c0-12.41,10.09-22.5,22.5-22.5s22.5,10.09,22.5,22.5v119
			C289,461.91,278.91,472,266.5,472z"/>
		<path class="st1" d="M266.5,313c9.65,0,17.5,7.85,17.5,17.5v119c0,9.65-7.85,17.5-17.5,17.5c-9.65,0-17.5-7.85-17.5-17.5v-119
			C249,320.85,256.85,313,266.5,313 M266.5,303L266.5,303c-15.19,0-27.5,12.31-27.5,27.5v119c0,15.19,12.31,27.5,27.5,27.5h0
			c15.19,0,27.5-12.31,27.5-27.5v-119C294,315.31,281.69,303,266.5,303L266.5,303z"/>
	</g>
	<rect x="341.06" y="204.5" class="st2" width="335" height="380"/>
	<text transform="matrix(0.4953 0 0 1 358.5621 278.8745)" class="st3 st4 st5">MEDIDAS EN CABINA</text>
	<text transform="matrix(0.8082 0 0 1 374.5 332.5488)"><tspan x="0" y="0" class="st6 st7">Ɣ</tspan><tspan x="17.65" y="0" class="st4 st7">:</tspan></text>
	<text transform="matrix(0.7236 0 0 1 374.5 370.9102)" class="st4 st8">N:</text>
	<text transform="matrix(0.7544 0 0 1 567.0005 333.9104)" class="st4 st9">mR/h</text>
	<text transform="matrix(0.7544 0 0 1 567.0005 370.9104)" class="st4 st9">mR/h</text>
	<text transform="matrix(0.8096 0 0 1 375.0005 498.5908)" class="st6 st7">Dual Ɣ+N</text>
	<text transform="matrix(0.7544 0 0 1 567.0005 498.9512)" class="st4 st9">mR/h</text>
	<text transform="matrix(0.8096 0 0 1 395.0005 548.5908)" class="st10 st6 st7">Nivel de ref: 5 uSv/h</text>
</g>
<g id="clickerasepush">
	<rect x="715" y="22" class="st11" width="144" height="108"/>
</g>
<g id="clickerase">
	<path class="st12" d="M868.46,139H705.54c-0.3,0-0.54-0.24-0.54-0.54V13.54c0-0.3,0.24-0.54,0.54-0.54h162.93
		c0.3,0,0.54,0.24,0.54,0.54v124.93C869,138.76,868.76,139,868.46,139z"/>
</g>
<g id="gamatext">
	<text transform="matrix(0.8096 0 0 1 459.4678 332.5488)" class="st6 st7">_ _ _</text>
</g>
<g id="neutrontext">
	<text transform="matrix(0.8096 0 0 1 459.4678 369.5488)" class="st6 st7">_ _ _</text>
</g>
<g id="dualtext">
	<text transform="matrix(0.8096 0 0 1 498.75 498.4478)" class="st6 st7">_ _ _</text>
</g>
<g id="clickacceptpush">
	<rect x="161" y="22" class="st11" width="144" height="108"/>
</g>
<g id="clickaccept">
	<rect x="151" y="13" class="st13" width="164" height="126"/>
</g>
</svg>
