<?xml version="1.0" encoding="utf-8"?>
<!-- Generator: Adobe Illustrator 23.0.3, SVG Export Plug-In . SVG Version: 6.00 Build 0)  -->
<svg version="1.1" xmlns="http://www.w3.org/2000/svg" xmlns:xlink="http://www.w3.org/1999/xlink" x="0px" y="0px"
	 viewBox="0 0 200 200" style="enable-background:new 0 0 200 200;" xml:space="preserve">

<defs>
<style type="text/css">
	.st0{fill:#FFFF00;}
	.st1{fill:#00FFFF;}
	.st2{fill:#93278F;}
	.st3{fill:#FF0000;}
	
	.layer{
		display: none;
	}
	
	#Capa_1{
		display: block;
	}
	
	@media screen and (min-width: 768px){
		#Capa_2{
			display: block;
		}
	}
	
	@media screen and (min-width: 1024px){
		
		#Capa_1{
		display: none;
		}	
		#Capa_2{
			display: block;
		}
		#Capa_3{
			display: block;
		}
	}
	
	
</style>
</defs>
<g id="Capa_1" class="layer">
	<g>
		<rect x="75.5" y="75.5" transform="matrix(0.1045 -0.9945 0.9945 0.1045 -9.9045 188.9998)" class="st0" width="49" height="49"/>
		<path d="M78.64,73.62l47.74,5.02l-5.02,47.74l-47.74-5.02L78.64,73.62 M77.75,72.52l-5.23,49.73l49.73,5.23l5.23-49.73
			L77.75,72.52L77.75,72.52z"/>
	</g>
</g>
<g id="Capa_2" class="layer">
	<g>
		<rect x="75.5" y="75.5" transform="matrix(0.7431 -0.6691 0.6691 0.7431 -41.2275 92.598)" class="st1" width="49" height="49"/>
		<path d="M101.78,66.11l32.12,35.67l-35.67,32.12L66.11,98.22L101.78,66.11 M101.85,64.69L64.69,98.15l33.46,37.16l37.16-33.46
			L101.85,64.69L101.85,64.69z"/>
	</g>
</g>
<g id="Capa_3" class="layer">
	<g>
		<rect x="75.5" y="75.5" transform="matrix(0.454 -0.891 0.891 0.454 -34.5 143.7007)" class="st2" width="49" height="49"/>
		<path d="M89.51,67.72l42.77,21.79l-21.79,42.77l-42.77-21.79L89.51,67.72 M89.07,66.38l-22.7,44.55l44.55,22.7l22.7-44.55
			L89.07,66.38L89.07,66.38z"/>
	</g>
</g>
<g id="Capa_4" class="layer">
	<g>
		<rect x="75.5" y="75.5" transform="matrix(0.9336 -0.3584 0.3584 0.9336 -29.1952 42.4795)" class="st3" width="49" height="49"/>
		<path d="M113.81,68.99l17.2,44.81l-44.81,17.2l-17.2-44.81L113.81,68.99 M114.38,67.7L67.7,85.62l17.92,46.68l46.68-17.92
			L114.38,67.7L114.38,67.7z"/>
	</g>
</g>
</svg>
